<?xml version="1.0" encoding="UTF-8" standalone="no"?><svg xmlns="http://www.w3.org/2000/svg" xmlns:xlink="http://www.w3.org/1999/xlink" fill="#ffffff" height="927" preserveAspectRatio="xMidYMid meet" version="1" viewBox="0.0 0.0 927.6 927.0" width="927.6" zoomAndPan="magnify"><g data-name="Layer 1" id="change1_1"><ellipse cx="463.8" cy="463.5" rx="463.8" ry="463.5"/></g><g data-name="Layer 2" id="change2_1"><path d="M7497.4,6897.5H7322.1l-122.6,176.1-122.6-176.1H6901.5L7112.2,7199l-210.7,302.5h174l124-177.5,124,177.5h174L7286.9,7199Zm-441.2,567.1h-84l162.5-233.3,23.3,33.4,19,27.2Zm370.6,0h-84L7222,7291.8l-22.5-32.2-16.5-23.7-24.1-34.5-1.6-2.4-22.6-32.2-162.4-232.4h85.2l119.4,171.5,22.5,32.3,6.4,9.1,24,34.5,12,17.2,22.5,32.3Zm-172-311.5-24-34.5-8.9-12.7,119.4-171.5h85.2l-162.2,232.4Z" fill="#4c9540" transform="translate(-6735.7 -6736)"/></g></svg>